<svg xmlns="http://www.w3.org/2000/svg" viewBox="0 0 83.39324 95.26844"><defs><filter id="i" x="-.07153" width="1.14307" y="-.07882" height="1.15764" color-interpolation-filters="sRGB"><feGaussianBlur stdDeviation="3.66537"/></filter><filter height="1.3659" y="-.18295" width="1.37212" x="-.18606" id="j" color-interpolation-filters="sRGB"><feGaussianBlur stdDeviation=".59083"/></filter><filter height="1.59901" y="-.2995" width="1.60919" x="-.30459" id="h" color-interpolation-filters="sRGB"><feGaussianBlur stdDeviation=".96723"/></filter><filter height="1.49409" y="-.24705" width="1.50249" x="-.25124" id="g" color-interpolation-filters="sRGB"><feGaussianBlur stdDeviation=".79782"/></filter><filter height="1.19959" y="-.0998" width="1.17147" x="-.08574" id="f" color-interpolation-filters="sRGB"><feGaussianBlur stdDeviation="1.58838"/></filter><filter id="d" x="-.07153" width="1.14307" y="-.07882" height="1.15764" color-interpolation-filters="sRGB"><feGaussianBlur stdDeviation="3.66537"/></filter><filter id="e" x="-.06248" width="1.12496" y="-.09379" height="1.18759" color-interpolation-filters="sRGB"><feGaussianBlur stdDeviation="2.12628"/></filter><filter height="1.18756" y="-.09378" width="1.25461" x="-.1273" id="c" color-interpolation-filters="sRGB"><feGaussianBlur stdDeviation="1.41763"/></filter><filter height="1.18756" y="-.09378" width="1.25461" x="-.1273" id="b" color-interpolation-filters="sRGB"><feGaussianBlur stdDeviation="1.41763"/></filter><filter height="1.08165" y="-.04082" width="1.11647" x="-.05824" id="a" color-interpolation-filters="sRGB"><feGaussianBlur stdDeviation="3.93739"/></filter><filter height="1.15767" y="-.07884" width="1.14304" x="-.07152" id="k" color-interpolation-filters="sRGB"><feGaussianBlur stdDeviation=".00422"/></filter></defs><path d="M66.56008 37.97689c-5.51603-4.95062-7.83352-12.44415-6.70427-19.7694.159-1.03082.218-2.09471.1672-3.18136C59.64044 6.85263 52.90442.24386 44.72509.0068c-8.93154-.25877-16.2531 6.9043-16.2531 15.77763 0 1.33032.16458 2.62229.4744 3.8563 1.8005 7.16995.02381 14.75237-5.04534 20.1332-5.0882 5.40121-8.30685 12.6545-8.30685 20.64386 0 18.40018 7.16068 27.2677 17.40614 30.06143 2.35717-1.05808 5.77559-1.72402 9.5803-1.72402 3.61897 0 6.8871.60271 9.22628 1.57214 12.6418-2.53417 18.63885-8.6913 22.82296-22.9071 3.34196-11.35432-1.83911-23.85165-8.0698-29.44335z"/><path d="M84.22465 242.44768c0-45.34 36.32501-150.337 81.13401-150.337 44.809 0 81.134 105.528 81.134 150.337 0 44.809-36.325 81.134-81.134 81.134s-81.134-36.325-81.134-81.134z" opacity=".7" fill="#fff" filter="url(#a)" transform="scale(.26458)"/><path d="M22.28444 64.14762c0-11.99621 9.611-39.77667 21.4667-39.77667 11.85572 0 21.4667 27.92095 21.4667 39.77667 0 11.85571-9.61098 21.4667-21.4667 21.4667-11.8557 0-21.4667-9.61099-21.4667-21.4667zm17.0852-45.83774a3.53563 4.79954 0 01-3.53562 4.79954 3.53563 4.79954 0 01-3.53563-4.79954 3.53563 4.79954 0 013.53563-4.79954 3.53563 4.79954 0 013.53562 4.79954" fill="#fff"/><path d="M148.79866 69.20268a13.363 18.14 0 01-13.363 18.14 13.363 18.14 0 01-13.363-18.14 13.363 18.14 0 0113.363-18.14 13.363 18.14 0 0113.363 18.14" opacity=".7" fill="#fff" filter="url(#b)" transform="scale(.26458)"/><path d="M37.58741 19.39996a1.7534 3.11124 0 01-1.7534 3.11123 1.7534 3.11124 0 01-1.75339-3.11123 1.7534 3.11124 0 011.7534-3.11124 1.7534 3.11124 0 011.7534 3.11124" fill="#000100"/><path d="M51.95852 18.30988a3.53563 4.79954 0 01-3.53563 4.79954 3.53563 4.79954 0 01-3.53563-4.79954 3.53563 4.79954 0 013.53563-4.79954 3.53563 4.79954 0 013.53563 4.79954" fill="#fff"/><path d="M196.37865 69.20268a13.363 18.14 0 01-13.363 18.14 13.363 18.14 0 01-13.363-18.14 13.363 18.14 0 0113.363-18.14 13.363 18.14 0 0113.363 18.14" opacity=".7" fill="#fff" filter="url(#c)" transform="scale(.26458)"/><path d="M50.17628 19.39996a1.7534 3.11124 0 01-1.75339 3.11123 1.7534 3.11124 0 01-1.7534-3.11123 1.7534 3.11124 0 011.7534-3.11124 1.7534 3.11124 0 011.7534 3.11124" fill="#000100"/><path d="M42.42056 32.25633c-3.19829 0-6.46034-1.56316-9.71312-4.65852l1.09431-1.15014c3.243 3.08557 6.427 4.4905 9.46124 4.17777 4.18862-.4326 6.7101-4.0177 6.73497-4.05368l1.30651.90223c-.11906.17224-2.97021 4.2238-7.87823 4.73048a9.76058 9.76058 0 01-1.00568.05186z" fill="#ae4e32"/><path d="M43.26272 30.62544c-.22621.02328-.45376.03387-.68183.0381v1.58856c.28205-.0048.56383-.01852.84455-.04762 4.90829-.50668 7.75917-4.5585 7.87824-4.73049l-1.30652-.90223c-.02434.03598-2.54608 3.62109-6.73444 4.05368z" fill="#9e402b"/><path d="M66.64866 64.84233c1.5605 3.0144 3.88143 5.86131 6.87493 6.5204 2.20768.48604 3.87747 2.36457 4.12379 4.61168.0341.31194.0804.62468.13944.93821.38126 2.03173 1.24407 3.85101 2.44792 5.36231 1.80737 2.26908.50456 5.65336-2.34553 6.19338l-22.50678 4.26534c-4.90246.92921-8.59023-4.386-6.00366-8.65294l12.42695-19.48365c1.1631-1.82403 3.84863-1.67613 4.84294.24527z" fill="#fe9b0e"/><path fill="#fe9b0e" d="M251.90042 245.07337c5.898 11.393 14.67 22.153 25.984 24.644 8.344 1.837 14.655 8.937 15.586 17.43.129 1.179.304 2.361.527 3.546 1.441 7.679 4.702 14.555 9.252 20.267 6.831 8.576 1.907 21.367-8.865 23.408l-85.065 16.121c-18.529 3.512-32.467-16.577-22.691-32.704l46.968-73.639c4.396-6.894 14.546-6.335 18.304.927z" transform="scale(.26458)" opacity=".71" filter="url(#d)"/><path d="M76.81534 68.41138a7.2099 7.2099 0 01-7.2099 7.2099 7.2099 7.2099 0 01-7.2099-7.2099 7.2099 7.2099 0 017.2099-7.2099 7.2099 7.2099 0 017.2099 7.2099m-55.93028-7.90046s7.7044 9.3927 13.1945 11.50937c5.49011 2.11667-2.61117 8.26214-10.0195 3.60177-7.40833-4.6601-3.175-15.11114-3.175-15.11114z"/><path d="M37.58741 19.39996a1.7534 3.11124 0 01-1.7534 3.11123 1.7534 3.11124 0 01-1.75339-3.11123 1.7534 3.11124 0 011.7534-3.11124 1.7534 3.11124 0 011.7534 3.11124" fill="#000100"/><path d="M51.95852 18.30988a3.53563 4.79954 0 01-3.53563 4.79954 3.53563 4.79954 0 01-3.53563-4.79954 3.53563 4.79954 0 013.53563-4.79954 3.53563 4.79954 0 013.53563 4.79954" fill="#fff"/><path d="M50.17628 19.39996a1.7534 3.11124 0 01-1.75339 3.11123 1.7534 3.11124 0 01-1.7534-3.11123 1.7534 3.11124 0 011.7534-3.11124 1.7534 3.11124 0 011.7534 3.11124" fill="#000100"/><path d="M53.15893 26.51752C54.31358 28.98 45.51936 33.652 42.45707 33.652c-3.8198 0-11.79671-5.64568-10.70187-7.1345 2.04285-2.77812 6.5032-7.26069 10.16503-7.26069 2.63816 0 10.45395 5.58747 11.2387 7.2607z" fill="#fe9a0f"/><path d="M53.15867 26.51752c-.72734-1.55072-7.49088-6.4606-10.57778-7.17153v14.30046c3.16495-.11641 11.71787-4.69794 10.57778-7.12893z" fill="#e2810c"/><path fill="#fe9a0f" d="M200.91566 100.22368c4.364 9.307-28.874 26.965-40.448 26.965-14.437 0-44.586-21.338-40.448-26.965 7.721-10.5 24.579-27.442 38.419-27.442 9.971 0 39.511 21.118 42.477 27.442z" transform="scale(.26458)" opacity=".7" filter="url(#e)"/><path d="M42.42056 32.25633c-3.19829 0-6.46034-1.56316-9.71312-4.65852l1.09431-1.15014c3.243 3.08557 6.427 4.4905 9.46124 4.17777 4.18862-.4326 6.7101-4.0177 6.73497-4.05368l1.30651.90223c-.11906.17224-2.97021 4.2238-7.87823 4.73048a9.76058 9.76058 0 01-1.00568.05186z" fill="#ae4e32"/><path d="M43.26272 30.62544c-.22621.02328-.45376.03387-.68183.0381v1.58856c.28205-.0048.56383-.01852.84455-.04762 4.90829-.50668 7.75917-4.5585 7.87824-4.73049l-1.30652-.90223c-.02434.03598-2.54608 3.62109-6.73444 4.05368z" fill="#9e402b"/><g transform="matrix(.2776 .27356 -.26404 .26795 32.72721 50.84483)" filter="url(#f)"><path d="M42 14l-2 26-26 2z" fill="#9b1010"/><path d="M28 28l12 12 2-26z" fill="#b71c1c"/><path d="M15.75216 15.75245a22.621 11.664-45.001 1016.49568 16.4951 22.621 11.664-45.001 10-16.49568-16.4951z" fill="#c62828"/><path d="M10 17l7-7 8-4 6 4-3 9-9 8-9 3-4-6z" fill="#e53935"/><path d="M31 10l-6-4h11zm11 5l-11-5-3 9zM19 27l13.235 5.235L28 19zm-9 3l4 12 5-15zm-4-6v11l4-5z" fill="#ff5252"/></g><path fill="#9b1010" d="M40.69024 66.08575l-7.4203 6.41952-7.74594-6.57675z"/><path fill="#b71c1c" d="M33.10712 66.00713l.16281 6.49814 7.4203-6.41952z"/><path fill="#c62828" d="M32.94086 59.37487a8.6664 4.4638 1.32643 10.22397 8.93243 8.6664 4.4638 1.32643 10-.22397-8.93243z"/><path fill="#e53935" d="M31.0146 58.13557l3.79156.03931 3.27705 1.11672.6095 2.71317-3.20922 1.59083-4.61082-.31848-3.29061-1.65822.47381-2.70194z"/><path fill="#ff5252" d="M38.6927 62.00476l-.6095-2.71317 3.05371 3.0092zm1.7335 4.34893l-1.7335-4.34893-3.2092 1.59084zm-9.55353-3.07657l2.2919 5.0233 2.31892-4.70482zm-3.29061-1.65823L25.524 65.92852l5.34867-2.6514zm.47381-2.70193l-2.90446 2.94742 2.43065-.24549z"/><path d="M20.59236 59.47263s7.9971 10.431 13.4872 12.54766c5.49011 2.11667-2.61117 8.26214-10.0195 3.60177-5.7838-3.63822-6.90294-15.29408-6.04942-18.26274.23973-.83382 2.58172 2.1133 2.58172 2.1133z"/><path d="M16.74433 64.9427c-1.56051 3.01439-3.88144 5.8613-6.87493 6.52038-2.20769.48604-3.87747 2.36458-4.1238 4.6117a12.44131 12.44131 0 01-.13917.9382c-.38126 2.03173-1.24407 3.85102-2.44792 5.36232-1.80737 2.26906-.50456 5.65334 2.34553 6.19336l22.50678 4.26535c4.90246.92921 8.59023-4.386 6.00366-8.65294L21.58753 64.69742c-1.16337-1.82403-3.8489-1.67613-4.8432.24527z" fill="#fe9b0e"/><path class="spark3" d="M35.30415 62.4186c-.11425.50783-.50626.90713-1.01193 1.03063.49994.12428.88791.51831 1.00444 1.02007.11432-.50775.5064-.90699 1.012-1.03043-.49994-.12422-.88804-.51837-1.0045-1.02026zm-2.01129-1.62558c-.11425.50782-.50625.90712-1.01193 1.03063.49994.12428.88791.5183 1.00444 1.02007.11432-.50775.5064-.90699 1.012-1.03043-.49994-.12422-.88804-.51837-1.0045-1.02027zm-2.4757 1.59858c-.11425.50783-.50626.90713-1.01193 1.03063.49994.12428.88791.5183 1.00444 1.02007.11432-.50775.5064-.90699 1.012-1.03043-.49994-.12422-.88804-.51837-1.0045-1.02027z" fill="#fff"/><path d="M133.43302 235.91283c-.43183 1.91932-1.91342 3.42849-3.82462 3.89527 1.88954.46974 3.35587 1.95897 3.79631 3.8554.43207-1.91908 1.91391-3.428 3.82486-3.89454-1.88953-.46949-3.35636-1.95921-3.79655-3.85613z" class="spark3" fill="#fff" filter="url(#g)" transform="scale(.26458)"/><path class="spark3" d="M125.8313 229.7689c-.43183 1.91932-1.91342 3.42849-3.82462 3.89527 1.88954.46974 3.35587 1.95897 3.79631 3.8554.43207-1.91908 1.91391-3.428 3.82486-3.89454-1.88953-.46949-3.35636-1.95921-3.79655-3.85613z" fill="#fff" filter="url(#h)" transform="scale(.26458)"/><path fill="#fe9b0e" d="M63.28565 245.45268c-5.898 11.393-14.67 22.153-25.984 24.644-8.344 1.837-14.655 8.937-15.586 17.43-.129 1.179-.304 2.361-.526 3.546-1.441 7.679-4.702 14.555-9.252 20.267-6.831 8.576-1.907 21.367 8.865 23.408l85.06501 16.121c18.529 3.512 32.467-16.577 22.691-32.704l-46.968-73.639c-4.397-6.894-14.547-6.335-18.305.927z" transform="scale(.26458)" opacity=".7" filter="url(#i)"/><path class="spark3" d="M116.47432 235.81078c-.43183 1.91932-1.91342 3.42849-3.82462 3.89527 1.88954.46974 3.35587 1.95897 3.79631 3.8554.43207-1.91908 1.91391-3.428 3.82486-3.89454-1.88953-.46949-3.35636-1.95921-3.79655-3.85613z" fill="#fff" filter="url(#j)" transform="scale(.26458)"/><path d="M46.3765 46.05976c-.8993-.80712-1.27712-2.02881-1.09302-3.22307.02592-.16806.03554-.34151.02726-.51867-.06238-1.33255-1.16057-2.41-2.49407-2.44865-1.45614-.04219-2.6498 1.12563-2.6498 2.57228 0 .21688.02684.42752.07735.6287.29354 1.16894.0039 2.40513-.82256 3.28238-.82955.88058-1.3543 2.0631-1.3543 3.36564 0 2.99984 1.16743 4.44554 2.83778 4.901.3843-.1725.94162-.28107 1.56191-.28107.59001 0 1.12283.09826 1.5042.25632 2.06102-.41316 3.03874-1.41697 3.7209-3.73462.54484-1.85113-.29984-3.88861-1.31565-4.80025z"/><path transform="matrix(.04314 0 0 .04314 35.525 39.86826)" filter="url(#a)" fill="#fff" opacity=".7" d="M84.22465 242.44768c0-45.34 36.32501-150.337 81.13401-150.337 44.809 0 81.134 105.528 81.134 150.337 0 44.809-36.325 81.134-81.134 81.134s-81.134-36.325-81.134-81.134z"/><path fill="#fff" d="M39.1581 50.32645c0-1.95578 1.56691-6.48491 3.49979-6.48491 1.93287 0 3.49978 4.55204 3.49978 6.48491 0 1.93288-1.5669 3.49979-3.49978 3.49979s-3.49979-1.56691-3.49979-3.49979zm2.78546-7.47307a.57642.78248 0 01-.57643.78248.57642.78248 0 01-.57642-.78248.57642.78248 0 01.57642-.78248.57642.78248 0 01.57643.78248"/><path transform="matrix(.04314 0 0 .04314 35.525 39.86826)" filter="url(#b)" fill="#fff" opacity=".7" d="M148.79866 69.20268a13.363 18.14 0 01-13.363 18.14 13.363 18.14 0 01-13.363-18.14 13.363 18.14 0 0113.363-18.14 13.363 18.14 0 0113.363 18.14"/><path fill="#000100" d="M41.653 43.0311a.28586.50723 0 01-.28587.50723.28586.50723 0 01-.28586-.50723.28586.50723 0 01.28586-.50724.28586.50723 0 01.28587.50724"/><path fill="#fff" d="M43.99596 42.85338a.57642.78248 0 01-.57642.78248.57642.78248 0 01-.57643-.78248.57642.78248 0 01.57643-.78249.57642.78248 0 01.57642.78249"/><path transform="matrix(.04314 0 0 .04314 35.525 39.86826)" filter="url(#c)" fill="#fff" opacity=".7" d="M196.37865 69.20268a13.363 18.14 0 01-13.363 18.14 13.363 18.14 0 01-13.363-18.14 13.363 18.14 0 0113.363-18.14 13.363 18.14 0 0113.363 18.14"/><path fill="#000100" d="M43.7054 43.0311a.28586.50723 0 01-.28586.50723.28586.50723 0 01-.28586-.50723.28586.50723 0 01.28586-.50724.28586.50723 0 01.28586.50724"/><path fill="#ae4e32" d="M42.44096 45.12711c-.52143 0-1.05325-.25484-1.58356-.75949l.1784-.18751c.52872.50305 1.04782.7321 1.5425.68112.68289-.07053 1.09397-.65502 1.09803-.66089l.213.1471c-.0194.02807-.48424.68861-1.28441.77122a1.57768 1.57768 0 01-.16396.0085z"/><path fill="#9e402b" d="M42.57826 44.86122c-.03688.0038-.07398.0055-.11116.0062v.259c.04598-.00079.09192-.003.13769-.0078.80021-.08262 1.265-.7432 1.28441-.77123l-.213-.1471c-.004.0059-.4151.59036-1.09794.66089z"/><path fill="#fe9a0f" d="M44.19167 44.1915c.18825.40146-1.2455 1.16316-1.74476 1.16316-.62275 0-1.92325-.92044-1.74476-1.16316.33305-.45293 1.06024-1.18374 1.65724-1.18374.4301 0 1.70434.91095 1.83228 1.18374z"/><path transform="matrix(.04314 0 0 .04314 35.525 39.86826)" d="M200.91566 100.22368c4.364 9.307-28.874 26.965-40.448 26.965-14.437 0-44.586-21.338-40.448-26.965 7.721-10.5 24.579-27.442 38.419-27.442 9.971 0 39.511 21.118 42.477 27.442z" fill="#fe9a0f" opacity=".7" filter="url(#e)"/><path fill="#e2810c" d="M44.19163 44.1915c-.11858-.25282-1.22127-1.0533-1.72453-1.1692v2.33145c.51599-.01898 1.9104-.76592 1.72453-1.16225z"/><path fill="#ae4e32" d="M42.44096 45.12711c-.52143 0-1.05325-.25484-1.58356-.75949l.1784-.18751c.52872.50305 1.04782.7321 1.5425.68112.68289-.07053 1.09397-.65502 1.09803-.66089l.213.1471c-.0194.02807-.48424.68861-1.28441.77122a1.57768 1.57768 0 01-.16396.0085z"/><path fill="#9e402b" d="M42.57826 44.86122c-.03688.0038-.07398.0055-.11116.0062v.259c.04598-.00079.09192-.003.13769-.0078.80021-.08262 1.265-.7432 1.28441-.77123l-.213-.1471c-.004.0059-.4151.59036-1.09794.66089z"/><path transform="matrix(.04314 0 0 .04314 35.525 39.86826)" d="M251.90042 245.07337c5.898 11.393 14.67 22.153 25.984 24.644 8.344 1.837 14.655 8.937 15.586 17.43.129 1.179.304 2.361.527 3.546 1.441 7.679 4.702 14.555 9.252 20.267 6.831 8.576 1.907 21.367-8.865 23.408l-85.065 16.121c-18.529 3.512-32.467-16.577-22.691-32.704l46.968-73.639c4.396-6.894 14.546-6.335 18.304.927z" fill="#fe9b0e" opacity=".71" filter="url(#d)"/><path fill="#fe9b0e" d="M46.39094 50.43971c.25442.49145.6328.9556 1.12084 1.06304.35993.07924.63216.3855.67232.75186a2.0245 2.0245 0 00.02273.15296c.06216.33124.20283.62784.3991.87424.29465.36993.08225.92168-.3824 1.00972l-3.66936.6954c-.79926.15149-1.4005-.71507-.9788-1.41072l2.02601-3.17648c.18963-.29738.62746-.27327.78956.03999z"/><path d="M48.04845 51.02159a1.17545 1.17545 0 01-1.17545 1.17545 1.17545 1.17545 0 01-1.17546-1.17545 1.17545 1.17545 0 011.17546-1.17546 1.17545 1.17545 0 011.17545 1.17546m-9.1185-1.28804s1.25608 1.53132 2.15115 1.87641c.89507.34509-.4257 1.347-1.63351.5872-1.2078-.75974-.51763-2.46361-.51763-2.46361z"/><path d="M38.88224 49.56427s1.3038 1.7006 2.19886 2.04569c.89507.34509-.4257 1.347-1.63351.5872-.94295-.59314-1.1254-2.49343-.98626-2.97743.03908-.13594.4209.34454.4209.34454z"/><path fill="#fe9b0e" d="M38.25488 50.45608c-.25441.49144-.6328.95558-1.12084 1.06304-.35993.07924-.63216.3855-.67232.75185a2.04474 2.04474 0 01-.02269.15296c-.06216.33124-.20282.62785-.39909.87424-.29466.36993-.08226.92168.3824 1.00972l3.66935.6954c.79927.15149 1.4005-.71507.9788-1.41072l-2.026-3.17648c-.18967-.29738-.6275-.27327-.7896.03999z"/><path transform="matrix(.04314 0 0 .04314 35.525 39.86826)" d="M63.28565 245.45268c-5.898 11.393-14.67 22.153-25.984 24.644-8.344 1.837-14.655 8.937-15.586 17.43-.129 1.179-.304 2.361-.526 3.546-1.441 7.679-4.702 14.555-9.252 20.267-6.831 8.576-1.907 21.367 8.865 23.408l85.06501 16.121c18.529 3.512 32.467-16.577 22.691-32.704l-46.968-73.639c-4.397-6.894-14.547-6.335-18.305.927z" fill="#fe9b0e" opacity=".7" filter="url(#i)"/><path d="M43.08395 47.37756c-.1466-.13157-.20819-.33073-.17818-.5254a.42247.42247 0 00.0044-.08456c-.01017-.21722-.18919-.39286-.40657-.39916-.23737-.0069-.43195.1835-.43195.41932 0 .03535.0044.06968.0126.10248.04786.19056.00064.39207-.13408.53508-.13523.14355-.22077.33631-.22077.54865 0 .48901.1903.72468.4626.79893.06265-.02812.1535-.04582.25461-.04582.09618 0 .18304.01602.2452.04178.33599-.06735.49537-.23098.60657-.6088.08882-.30176-.04888-.6339-.21447-.7825z"/><path d="M84.22465 242.44768c0-45.34 36.32501-150.337 81.13401-150.337 44.809 0 81.134 105.528 81.134 150.337 0 44.809-36.325 81.134-81.134 81.134s-81.134-36.325-81.134-81.134z" opacity=".7" fill="#fff" filter="url(#a)" transform="translate(41.315 46.36826) scale(.00703)"/><path d="M41.90725 48.0731c0-.31883.25543-1.05714.57051-1.05714.3151 0 .57052.74205.57052 1.05713 0 .31509-.25543.57052-.57052.57052-.31508 0-.57051-.25543-.57051-.57052zm.45407-1.21823a.09397.12756 0 01-.09397.12756.09397.12756 0 01-.09397-.12756.09397.12756 0 01.09397-.12755.09397.12756 0 01.09397.12755" fill="#fff"/><path d="M148.79866 69.20268a13.363 18.14 0 01-13.363 18.14 13.363 18.14 0 01-13.363-18.14 13.363 18.14 0 0113.363-18.14 13.363 18.14 0 0113.363 18.14" opacity=".7" fill="#fff" filter="url(#b)" transform="translate(41.315 46.36826) scale(.00703)"/><path d="M42.31395 46.88384a.0466.08269 0 01-.0466.0827.0466.08269 0 01-.0466-.0827.0466.08269 0 01.0466-.08269.0466.08269 0 01.0466.0827" fill="#000100"/><path d="M42.69589 46.85487a.09397.12756 0 01-.09397.12756.09397.12756 0 01-.09397-.12756.09397.12756 0 01.09397-.12755.09397.12756 0 01.09397.12755" fill="#fff"/><path d="M196.37865 69.20268a13.363 18.14 0 01-13.363 18.14 13.363 18.14 0 01-13.363-18.14 13.363 18.14 0 0113.363-18.14 13.363 18.14 0 0113.363 18.14" opacity=".7" fill="#fff" filter="url(#c)" transform="translate(41.315 46.36826) scale(.00703)"/><path d="M42.64852 46.88384a.0466.08269 0 01-.0466.0827.0466.08269 0 01-.0466-.0827.0466.08269 0 01.0466-.08269.0466.08269 0 01.0466.0827" fill="#000100"/><path d="M42.4424 47.22552c-.085 0-.1717-.04154-.25814-.1238l.02908-.03057c.08619.082.1708.11934.25145.11103.11132-.0115.17833-.10678.179-.10773l.03471.02398c-.0032.0046-.07894.11225-.20938.12572a.2573.2573 0 01-.02673.0014z" fill="#ae4e32"/><path d="M42.46478 47.18218a.21222.21222 0 01-.01812.001v.04222a.24671.24671 0 00.02245-.0013c.13045-.01347.20622-.12115.20938-.12572l-.03472-.02398c-.00065.00096-.06767.09624-.17898.10773z" fill="#9e402b"/><path d="M42.7278 47.073c.03068.06545-.20304.18962-.28443.18962-.10152 0-.31352-.15005-.28442-.18961.0543-.07383.17283-.19297.27015-.19297.07011 0 .27784.1485.2987.19297z" fill="#fe9a0f"/><path fill="#fe9a0f" d="M200.91566 100.22368c4.364 9.307-28.874 26.965-40.448 26.965-14.437 0-44.586-21.338-40.448-26.965 7.721-10.5 24.579-27.442 38.419-27.442 9.971 0 39.511 21.118 42.477 27.442z" transform="translate(41.315 46.36826) scale(.00703)" opacity=".7" filter="url(#e)"/><path d="M42.72779 47.073c-.01933-.0412-.19909-.1717-.28113-.19059v.38006c.08411-.0031.31143-.12486.28113-.18946z" fill="#e2810c"/><path d="M42.4424 47.22552c-.085 0-.1717-.04154-.25814-.1238l.02908-.03057c.08619.082.1708.11934.25145.11103.11132-.0115.17833-.10678.179-.10773l.03471.02398c-.0032.0046-.07894.11225-.20938.12572a.2573.2573 0 01-.02673.0014z" fill="#ae4e32"/><path d="M42.46478 47.18218a.21222.21222 0 01-.01812.001v.04222a.24671.24671 0 00.02245-.0013c.13045-.01347.20622-.12115.20938-.12572l-.03472-.02398c-.00065.00096-.06767.09624-.17898.10773z" fill="#9e402b"/><path d="M41.86228 47.94885s.21254.27722.35844.33347c.14591.05626-.0694.21958-.26628.09572-.15372-.09669-.18346-.40647-.16078-.48536.0064-.02216.06861.05617.06861.05617z"/><path fill="#ae4e32" d="M42.4424 47.22552c-.085 0-.1717-.04154-.25814-.1238l.02908-.03057c.08619.082.1708.11934.25145.11103.11132-.0115.17833-.10678.179-.10773l.03471.02398c-.0032.0046-.07894.11225-.20938.12572a.2573.2573 0 01-.02673.0014z"/><path fill="#9e402b" d="M42.46478 47.18218a.21222.21222 0 01-.01812.001v.04222a.24671.24671 0 00.02245-.0013c.13045-.01347.20622-.12115.20938-.12572l-.03472-.02398c-.00065.00096-.06767.09624-.17898.10773z"/><path fill="#e2810c" d="M42.72779 47.073c-.01933-.0412-.19909-.1717-.28113-.19059v.38006c.08411-.0031.31143-.12486.28113-.18946z"/><path fill="#ae4e32" d="M42.4424 47.22552c-.085 0-.1717-.04154-.25814-.1238l.02908-.03057c.08619.082.1708.11934.25145.11103.11132-.0115.17833-.10678.179-.10773l.03471.02398c-.0032.0046-.07894.11225-.20938.12572a.2573.2573 0 01-.02673.0014z"/><path fill="#9e402b" d="M42.46478 47.18218a.21222.21222 0 01-.01812.001v.04222a.24671.24671 0 00.02245-.0013c.13045-.01347.20622-.12115.20938-.12572l-.03472-.02398c-.00065.00096-.06767.09624-.17898.10773z"/><path d="M41.86228 47.94885s.21254.27722.35844.33347c.14591.05626-.0694.21958-.26628.09572-.15372-.09669-.18346-.40647-.16078-.48536.0064-.02216.06861.05617.06861.05617z"/><path fill="#ae4e32" d="M42.4424 47.22552c-.085 0-.1717-.04154-.25814-.1238l.02908-.03057c.08619.082.1708.11934.25145.11103.11132-.0115.17833-.10678.179-.10773l.03471.02398c-.0032.0046-.07894.11225-.20938.12572a.2573.2573 0 01-.02673.0014z"/><path fill="#9e402b" d="M42.46478 47.18218a.21222.21222 0 01-.01812.001v.04222a.24671.24671 0 00.02245-.0013c.13045-.01347.20622-.12115.20938-.12572l-.03472-.02398c-.00065.00096-.06767.09624-.17898.10773z"/><path fill="#ae4e32" d="M42.4424 47.22552c-.085 0-.1717-.04154-.25814-.1238l.02908-.03057c.08619.082.1708.11934.25145.11103.11132-.0115.17833-.10678.179-.10773l.03471.02398c-.0032.0046-.07894.11225-.20938.12572a.2573.2573 0 01-.02673.0014z"/><path fill="#9e402b" d="M42.46478 47.18218a.21222.21222 0 01-.01812.001v.04222a.24671.24671 0 00.02245-.0013c.13045-.01347.20622-.12115.20938-.12572l-.03472-.02398c-.00065.00096-.06767.09624-.17898.10773z"/><path d="M41.86228 47.94885s.21254.27722.35844.33347c.14591.05626-.0694.21958-.26628.09572-.15372-.09669-.18346-.40647-.16078-.48536.0064-.02216.06861.05617.06861.05617z"/><path d="M42.4424 47.22552c-.085 0-.1717-.04154-.25814-.1238l.02908-.03057c.08619.082.1708.11934.25145.11103.11132-.0115.17833-.10678.179-.10773l.03471.02398c-.0032.0046-.07894.11225-.20938.12572a.2573.2573 0 01-.02673.0014z" fill="#ae4e32"/><path d="M42.46478 47.18218a.21222.21222 0 01-.01812.001v.04222a.24671.24671 0 00.02245-.0013c.13045-.01347.20622-.12115.20938-.12572l-.03472-.02398c-.00065.00096-.06767.09624-.17898.10773z" fill="#9e402b"/><path d="M42.4424 47.22552c-.085 0-.1717-.04154-.25814-.1238l.02908-.03057c.08619.082.1708.11934.25145.11103.11132-.0115.17833-.10678.179-.10773l.03471.02398c-.0032.0046-.07894.11225-.20938.12572a.2573.2573 0 01-.02673.0014z" fill="#ae4e32"/><path d="M42.46478 47.18218a.21222.21222 0 01-.01812.001v.04222a.24671.24671 0 00.02245-.0013c.13045-.01347.20622-.12115.20938-.12572l-.03472-.02398c-.00065.00096-.06767.09624-.17898.10773z" fill="#9e402b"/><path fill="#fe9b0e" d="M251.90042 245.07337c5.898 11.393 14.67 22.153 25.984 24.644 8.344 1.837 14.655 8.937 15.586 17.43.129 1.179.304 2.361.527 3.546 1.441 7.679 4.702 14.555 9.252 20.267 6.831 8.576 1.907 21.367-8.865 23.408l-85.065 16.121c-18.529 3.512-32.467-16.577-22.691-32.704l46.968-73.639c4.396-6.894 14.546-6.335 18.304.927z" transform="translate(41.315 46.36826) scale(.00703)" opacity=".71" filter="url(#d)"/><path d="M43.0863 48.09156c.04148.0801.10316.15577.18272.17329.05867.01292.10305.06284.1096.12256a.31373.31373 0 00.0037.02493.32379.32379 0 00.06506.14251c.04803.0603.0134.15025-.06234.1646l-.59816.11336c-.1303.0247-.2283-.11656-.15956-.22996l.33027-.51782c.0309-.04848.10228-.04455.1287.0065z" fill="#fe9b0e"/><path d="M43.3565 48.18641a.19162.19162 0 01-.19161.19162.19162.19162 0 01-.19162-.19162.19162.19162 0 01.19162-.19162.19162.19162 0 01.19161.19162m-1.48644-.20997s.20476.24963.35066.30588c.14591.05626-.0694.21958-.26628.09572-.1969-.12385-.08438-.4016-.08438-.4016z"/><path d="M41.86228 47.94885s.21254.27722.35844.33347c.14591.05626-.0694.21958-.26628.09572-.15372-.09669-.18346-.40647-.16078-.48536.0064-.02216.06861.05617.06861.05617z"/><path d="M41.76001 48.09422c-.04147.08011-.10316.15578-.18271.1733-.05867.01291-.10305.06283-.1096.12256a.31327.31327 0 01-.0037.02493.32378.32378 0 01-.06506.14251c-.04803.0603-.01341.15025.06234.1646l.59816.11336c.13029.0247.2283-.11657.15955-.22997l-.33026-.51781c-.03092-.04848-.1023-.04455-.12872.0065z" fill="#fe9b0e"/><path fill="#fe9b0e" d="M63.28565 245.45268c-5.898 11.393-14.67 22.153-25.984 24.644-8.344 1.837-14.655 8.937-15.586 17.43-.129 1.179-.304 2.361-.526 3.546-1.441 7.679-4.702 14.555-9.252 20.267-6.831 8.576-1.907 21.367 8.865 23.408l85.06501 16.121c18.529 3.512 32.467-16.577 22.691-32.704l-46.968-73.639c-4.397-6.894-14.547-6.335-18.305.927z" transform="translate(41.315 46.36826) scale(.00703)" opacity=".7" filter="url(#i)"/><path d="M42.55193 47.59215c-.02403-.02156-.03412-.0542-.0292-.0861a.06926.06926 0 00.00072-.01387c-.0017-.0356-.03101-.06439-.06664-.06542a.06878.06878 0 00-.0687.08553c.0078.03123.0001.06426-.02198.0877-.02216.02353-.03618.05512-.03618.08992 0 .08015.03119.11878.07582.13095.01027-.0046.02516-.0075.04173-.0075.01576 0 .03.0026.04019.0068.05507-.01104.08119-.03786.0994-.09978.01457-.04946-.008-.1039-.03514-.12825z"/><path transform="translate(42.262 47.42673) scale(.00115)" filter="url(#a)" fill="#fff" opacity=".7" d="M84.22465 242.44768c0-45.34 36.32501-150.337 81.13401-150.337 44.809 0 81.134 105.528 81.134 150.337 0 44.809-36.325 81.134-81.134 81.134s-81.134-36.325-81.134-81.134z"/><path fill="#fff" d="M42.35907 47.70615c0-.05225.04186-.17326.0935-.17326.05165 0 .09352.12162.09352.17326a.0935.0935 0 01-.09351.09351.0935.0935 0 01-.09351-.09351zm.07442-.19966a.0154.0209 0 01-.0154.0209.0154.0209 0 01-.0154-.0209.0154.0209 0 01.0154-.02091.0154.0209 0 01.0154.0209"/><path transform="translate(42.262 47.42673) scale(.00115)" filter="url(#b)" fill="#fff" opacity=".7" d="M148.79866 69.20268a13.363 18.14 0 01-13.363 18.14 13.363 18.14 0 01-13.363-18.14 13.363 18.14 0 0113.363-18.14 13.363 18.14 0 0113.363 18.14"/><path fill="#000100" d="M42.42572 47.51123a.00764.01355 0 01-.0076.01356.00764.01355 0 01-.0076-.01356.00764.01355 0 01.0076-.01354.00764.01355 0 01.0076.01354"/><path fill="#fff" d="M42.48832 47.50649a.0154.0209 0 01-.0154.0209.0154.0209 0 01-.0154-.0209.0154.0209 0 01.0154-.02091.0154.0209 0 01.0154.0209"/><path transform="translate(42.262 47.42673) scale(.00115)" filter="url(#c)" fill="#fff" opacity=".7" d="M196.37865 69.20268a13.363 18.14 0 01-13.363 18.14 13.363 18.14 0 01-13.363-18.14 13.363 18.14 0 0113.363-18.14 13.363 18.14 0 0113.363 18.14"/><path fill="#000100" d="M42.48056 47.51123a.00764.01355 0 01-.0076.01356.00764.01355 0 01-.0076-.01356.00764.01355 0 01.0076-.01354.00764.01355 0 01.0076.01354"/><path fill="#ae4e32" d="M42.44678 47.56723c-.01393 0-.02814-.0068-.04231-.02029l.0048-.005c.01413.01344.028.01956.0412.0182.01826-.0019.02924-.0175.02935-.01766l.0057.0039c-.00053.00076-.01294.0184-.03432.0206a.04238.04238 0 01-.0044.00023z"/><path fill="#9e402b" d="M42.45045 47.56013a.03508.03508 0 01-.003.00016v.0069a.04097.04097 0 00.0037-.0002c.02138-.0022.0338-.01987.03432-.0206l-.0057-.0039c-.00011.00015-.0111.01576-.02933.01765z"/><path fill="#fe9a0f" d="M42.49355 47.54224c.005.01073-.03328.03108-.04662.03108-.01664 0-.05139-.0246-.04662-.03108.0089-.0121.02833-.03163.04428-.03163.0115 0 .04554.02434.04895.03163z"/><path fill="#e2810c" d="M42.49355 47.54224c-.0032-.0068-.03263-.02814-.04608-.03124v.06229c.0138-.00051.05104-.02046.04608-.03105z"/><path fill="#ae4e32" d="M42.44678 47.56723c-.01393 0-.02814-.0068-.04231-.02029l.0048-.005c.01413.01344.028.01956.0412.0182.01826-.0019.02924-.0175.02935-.01766l.0057.0039c-.00053.00076-.01294.0184-.03432.0206a.04238.04238 0 01-.0044.00023z"/><path fill="#9e402b" d="M42.45045 47.56013a.03508.03508 0 01-.003.00016v.0069a.04097.04097 0 00.0037-.0002c.02138-.0022.0338-.01987.03432-.0206l-.0057-.0039c-.00011.00015-.0111.01576-.02933.01765z"/><path d="M42.3517 47.68579s.03484.04544.05875.05466c.0239.0092-.01138.03599-.04364.01569-.0252-.01585-.03007-.06662-.02635-.07955.001-.0036.01125.0092.01125.0092z"/><path d="M42.44678 47.56723c-.01393 0-.02814-.0068-.04231-.02029l.0048-.005c.01413.01344.028.01956.0412.0182.01826-.0019.02924-.0175.02935-.01766l.0057.0039c-.00053.00076-.01294.0184-.03432.0206a.04238.04238 0 01-.0044.00023z" fill="#ae4e32"/><path d="M42.45045 47.56013a.03508.03508 0 01-.003.00016v.0069a.04097.04097 0 00.0037-.0002c.02138-.0022.0338-.01987.03432-.0206l-.0057-.0039c-.00011.00015-.0111.01576-.02933.01765z" fill="#9e402b"/><path d="M42.44678 47.56723c-.01393 0-.02814-.0068-.04231-.02029l.0048-.005c.01413.01344.028.01956.0412.0182.01826-.0019.02924-.0175.02935-.01766l.0057.0039c-.00053.00076-.01294.0184-.03432.0206a.04238.04238 0 01-.0044.00023z" fill="#ae4e32"/><path d="M42.45045 47.56013a.03508.03508 0 01-.003.00016v.0069a.04097.04097 0 00.0037-.0002c.02138-.0022.0338-.01987.03432-.0206l-.0057-.0039c-.00011.00015-.0111.01576-.02933.01765z" fill="#9e402b"/><path d="M42.3517 47.68579s.03484.04544.05875.05466c.0239.0092-.01138.03599-.04364.01569-.0252-.01585-.03007-.06662-.02635-.07955.001-.0036.01125.0092.01125.0092z"/><path d="M42.44678 47.56723c-.01393 0-.02814-.0068-.04231-.02029l.0048-.005c.01413.01344.028.01956.0412.0182.01826-.0019.02924-.0175.02935-.01766l.0057.0039c-.00053.00076-.01294.0184-.03432.0206a.04238.04238 0 01-.0044.00023z" fill="#ae4e32"/><path d="M42.45045 47.56013a.03508.03508 0 01-.003.00016v.0069a.04097.04097 0 00.0037-.0002c.02138-.0022.0338-.01987.03432-.0206l-.0057-.0039c-.00011.00015-.0111.01576-.02933.01765z" fill="#9e402b"/><path d="M42.44678 47.56723c-.01393 0-.02814-.0068-.04231-.02029l.0048-.005c.01413.01344.028.01956.0412.0182.01826-.0019.02924-.0175.02935-.01766l.0057.0039c-.00053.00076-.01294.0184-.03432.0206a.04238.04238 0 01-.0044.00023z" fill="#ae4e32"/><path d="M42.45045 47.56013a.03508.03508 0 01-.003.00016v.0069a.04097.04097 0 00.0037-.0002c.02138-.0022.0338-.01987.03432-.0206l-.0057-.0039c-.00011.00015-.0111.01576-.02933.01765z" fill="#9e402b"/><path d="M42.3517 47.68579s.03484.04544.05875.05466c.0239.0092-.01138.03599-.04364.01569-.0252-.01585-.03007-.06662-.02635-.07955.001-.0036.01125.0092.01125.0092z"/><path d="M87.79021-31.67504c.0068.01313.01691.02553.02995.0284a.02323.02323 0 01.01796.02009.05313.05313 0 00.01127.02746c.0079.0099.0022.02463-.01022.02698l-.09804.01858c-.02135.004-.03742-.01911-.02615-.0377l.05413-.08486a.01218.01218 0 01.0211.0011z" fill="#fe9b0e" opacity=".7" filter="url(#k)" transform="translate(-45.2379 79.38422)"/><path fill="#fe9b0e" d="M42.55231 47.70918c.0068.01313.01691.02553.02995.0284a.02323.02323 0 01.01796.02009.05313.05313 0 00.01127.02746c.0079.0099.0022.02463-.01022.02698l-.09804.01858c-.02135.004-.03742-.01911-.02615-.0377l.05413-.08486a.01218.01218 0 01.0211.0011z"/><path d="M42.3517 47.68579s.03484.04544.05875.05466c.0239.0092-.01138.03599-.04364.01569-.0252-.01585-.03007-.06662-.02635-.07955.001-.0036.01125.0092.01125.0092z"/><path d="M42.5966 47.72472a.0314.0314 0 01-.03141.0314.0314.0314 0 01-.03141-.0314.0314.0314 0 01.0314-.0314.0314.0314 0 01.03142.0314m-.24363-.0344s.03356.0409.05747.05012c.02391.0092-.01138.036-.04364.0157-.03227-.0203-.01383-.06583-.01383-.06583z"/><path fill="#fe9b0e" d="M42.33494 47.70961c-.0068.01313-.01691.02553-.02995.0284a.02323.02323 0 00-.01796.0201.05365.05365 0 01-.01127.02746c-.0079.0099-.0022.02462.01022.02697l.09804.01858c.02135.004.03742-.0191.02615-.03769l-.05413-.08487a.01218.01218 0 00-.0211.0011z"/><path transform="translate(42.262 47.42673) scale(.00115)" d="M63.28565 245.45268c-5.898 11.393-14.67 22.153-25.984 24.644-8.344 1.837-14.655 8.937-15.586 17.43-.129 1.179-.304 2.361-.526 3.546-1.441 7.679-4.702 14.555-9.252 20.267-6.831 8.576-1.907 21.367 8.865 23.408l85.06501 16.121c18.529 3.512 32.467-16.577 22.691-32.704l-46.968-73.639c-4.397-6.894-14.547-6.335-18.305.927z" fill="#fe9b0e" opacity=".7" filter="url(#i)"/></svg>